<!DOCTYPE svg PUBLIC "-//W3C//DTD SVG 20010904//EN" "http://www.w3.org/TR/2001/REC-SVG-20010904/DTD/svg10.dtd">
<svg version="1.0" xmlns="http://www.w3.org/2000/svg" width="130px" height="109px" viewBox="0 0 1300 1090" preserveAspectRatio="xMidYMid meet">
<g id="layer101" fill="#3dc182" stroke="none">
 <path d="M7 1083 c-4 -3 -7 -10 -7 -15 0 -4 293 -8 650 -8 571 0 650 2 650 15 0 13 -78 15 -643 15 -354 0 -647 -3 -650 -7z"/>
 <path d="M7 993 c-17 -17 -2 -23 58 -23 l65 0 0 -155 0 -155 -25 0 c-14 0 -25 -4 -25 -9 0 -7 183 -246 217 -281 12 -13 18 -10 48 25 l34 40 1 -92 0 -93 -40 0 c-27 0 -40 -4 -40 -13 0 -14 300 -226 329 -234 9 -2 67 33 130 77 l114 81 44 -43 43 -43 136 137 c80 79 134 140 130 147 -4 6 -20 11 -37 11 l-29 0 0 300 0 300 70 0 c56 0 70 3 70 15 0 13 -78 15 -643 15 -354 0 -647 -3 -650 -7z m453 -186 c0 -90 4 -167 10 -173 9 -9 -143 -214 -160 -214 -13 0 -170 205 -160 208 6 2 10 74 10 173 l0 169 150 0 150 0 0 -163z m310 -137 l0 -300 -40 0 c-60 0 -52 -22 37 -105 42 -39 74 -75 71 -81 -4 -5 -51 -40 -106 -78 l-99 -68 -128 89 c-80 54 -122 89 -112 91 15 3 17 20 17 132 l0 128 65 83 c36 45 65 86 65 92 0 5 -9 11 -20 14 -19 5 -20 14 -20 154 l0 149 135 0 135 0 0 -300z m360 -14 c0 -309 0 -315 20 -318 17 -2 1 -23 -85 -108 l-105 -105 -100 100 c-94 94 -98 99 -77 110 22 11 22 12 25 323 l2 312 160 0 160 0 0 -314z"/>
 <path d="M240 800 l0 -100 75 0 75 0 0 100 0 100 -75 0 -75 0 0 -100z m120 0 l0 -70 -45 0 -45 0 0 70 0 70 45 0 45 0 0 -70z"/>
 <path d="M200 636 c0 -19 100 -136 116 -136 15 0 114 119 114 137 0 10 -29 13 -115 13 -92 0 -115 -3 -115 -14z m170 -23 c-1 -5 -13 -22 -28 -40 l-27 -32 -33 40 -33 39 60 0 c34 0 61 -3 61 -7z"/>
 <path d="M560 765 c0 -12 14 -15 70 -15 56 0 70 3 70 15 0 12 -14 15 -70 15 -56 0 -70 -3 -70 -15z"/>
 <path d="M560 645 c0 -13 12 -15 67 -13 42 2 68 8 71 16 3 9 -15 12 -67 12 -57 0 -71 -3 -71 -15z"/>
 <path d="M560 535 c0 -12 14 -15 70 -15 56 0 70 3 70 15 0 12 -14 15 -70 15 -56 0 -70 -3 -70 -15z"/>
 <path d="M560 415 c0 -12 14 -15 70 -15 56 0 70 3 70 15 0 12 -14 15 -70 15 -56 0 -70 -3 -70 -15z"/>
 <path d="M500 248 c1 -61 60 -108 134 -108 43 0 53 4 87 39 25 25 39 48 39 65 l0 26 -130 0 c-128 0 -130 0 -130 -22z m220 -16 c0 -23 -53 -57 -90 -57 -37 0 -90 34 -90 57 0 4 41 8 90 8 50 0 90 -4 90 -8z"/>
 <path d="M910 835 l0 -76 58 3 57 3 0 70 0 70 -57 3 -58 3 0 -76z m80 0 c0 -41 -2 -45 -25 -45 -23 0 -25 4 -25 45 0 41 2 45 25 45 23 0 25 -4 25 -45z"/>
 <path d="M910 645 l0 -76 58 3 57 3 0 70 0 70 -57 3 -58 3 0 -76z m80 0 c0 -41 -2 -45 -25 -45 -23 0 -25 4 -25 45 0 41 2 45 25 45 23 0 25 -4 25 -45z"/>
 <path d="M910 445 l0 -76 58 3 57 3 0 70 0 70 -57 3 -58 3 0 -76z m80 0 c0 -41 -2 -45 -25 -45 -23 0 -25 4 -25 45 0 41 2 45 25 45 23 0 25 -4 25 -45z"/>
 </g>

</svg>