<!DOCTYPE svg PUBLIC "-//W3C//DTD SVG 20010904//EN" "http://www.w3.org/TR/2001/REC-SVG-20010904/DTD/svg10.dtd">
<svg version="1.0" xmlns="http://www.w3.org/2000/svg" width="129px" height="110px" viewBox="0 0 1290 1100" preserveAspectRatio="xMidYMid meet">
<g id="layer101" fill="#3dc47f" stroke="none">
 <path d="M0 1085 c0 -13 78 -15 645 -15 567 0 645 2 645 15 0 13 -78 15 -645 15 -567 0 -645 -2 -645 -15z"/>
 <path d="M0 995 c0 -12 15 -15 78 -15 l79 0 179 -490 c98 -270 184 -490 191 -490 6 0 28 51 49 113 27 79 40 105 42 87 7 -45 31 -62 87 -59 33 2 61 -3 82 -14 86 -46 183 9 183 103 0 38 -19 77 -55 110 -24 23 -37 25 -135 30 l-108 5 65 164 66 163 54 -137 c29 -75 53 -141 53 -147 0 -5 8 -8 17 -6 13 2 49 82 129 283 l111 280 61 3 c46 2 62 7 62 17 0 13 -88 15 -645 15 -567 0 -645 -2 -645 -15z m870 -23 c0 -4 -42 -112 -93 -240 l-94 -233 -26 40 c-15 23 -33 41 -41 41 -7 0 -21 -16 -32 -35 -10 -19 -21 -35 -24 -35 -3 0 -18 38 -34 85 -17 53 -33 85 -41 85 -9 0 -22 -27 -35 -73 -12 -39 -25 -83 -29 -96 l-7 -24 -31 29 c-25 23 -47 72 -107 239 -42 116 -76 213 -76 218 0 4 151 7 335 7 184 0 335 -3 335 -8z m241 -39 c-11 -27 -35 -87 -53 -135 -18 -48 -35 -88 -39 -88 -3 0 -15 23 -26 50 -12 28 -26 50 -32 50 -6 0 -25 -27 -41 -61 -31 -60 -32 -61 -52 -43 -43 40 -43 50 3 165 l42 109 108 0 109 0 -19 -47z m-129 -238 c17 -45 17 -46 -14 -125 -17 -44 -34 -80 -38 -80 -4 0 -19 30 -33 68 -14 37 -29 76 -33 87 -7 18 -6 18 9 6 22 -17 38 -5 62 49 10 22 21 40 24 40 4 0 14 -20 23 -45z m-426 -255 c8 0 24 21 37 46 l23 46 26 -39 25 -38 -18 -42 c-16 -39 -22 -43 -52 -43 -52 0 -82 -29 -82 -80 0 -34 6 -46 28 -64 l27 -22 -21 -62 c-12 -35 -23 -62 -25 -60 -3 4 -134 359 -134 365 0 2 11 1 24 -3 27 -6 22 -16 58 119 l12 48 30 -86 c17 -48 35 -85 42 -85z m329 -122 c41 -32 60 -83 44 -120 -14 -35 -61 -62 -92 -52 -12 3 -34 18 -49 31 -26 25 -36 25 -70 1 -13 -9 -22 -9 -43 0 -23 11 -26 18 -24 50 3 32 1 37 -16 34 -63 -11 -80 -8 -83 19 -6 51 15 59 167 59 127 0 141 -2 166 -22z"/>
 <path d="M1001 486 c-19 -23 -9 -69 17 -82 12 -6 28 -18 35 -27 7 -8 30 -17 52 -20 22 -3 51 -8 65 -12 18 -5 33 0 53 15 36 29 37 81 2 115 -22 23 -32 25 -118 25 -70 0 -98 -4 -106 -14z m200 -37 c23 -23 22 -47 -3 -63 -13 -8 -23 -8 -35 2 -31 22 -47 26 -51 14 -7 -23 -32 -12 -32 14 0 23 -3 26 -25 22 -14 -3 -28 -1 -31 3 -12 21 12 29 82 29 61 0 77 -3 95 -21z"/>
 </g>

</svg>