<!DOCTYPE svg PUBLIC "-//W3C//DTD SVG 20010904//EN" "http://www.w3.org/TR/2001/REC-SVG-20010904/DTD/svg10.dtd">
<svg version="1.0" xmlns="http://www.w3.org/2000/svg" width="132px" height="103px" viewBox="0 0 1320 1030" preserveAspectRatio="xMidYMid meet">
<g id="layer101" fill="#3fc182" stroke="none">
 <path d="M0 1015 c0 -13 79 -15 661 -15 524 0 660 3 657 13 -4 9 -147 13 -661 15 -580 2 -657 0 -657 -13z"/>
 <path d="M0 920 c0 -17 7 -20 45 -20 43 0 45 -1 45 -30 0 -28 3 -30 35 -30 38 0 45 -15 18 -35 -16 -12 -16 -17 -4 -57 9 -26 16 -102 18 -195 l4 -151 -23 -4 c-36 -5 -34 -45 7 -168 24 -72 44 -115 58 -125 18 -12 67 -15 284 -15 l262 0 23 -31 c43 -58 108 -75 160 -41 37 23 318 338 318 355 0 8 -18 19 -40 26 l-40 12 0 244 0 244 73 3 c56 2 72 6 72 18 0 13 -81 15 -657 18 -653 2 -658 2 -658 -18z m580 -35 c0 -13 -32 -15 -230 -15 -198 0 -230 2 -230 15 0 13 32 15 230 15 198 0 230 -2 230 -15z m120 -25 c0 -33 3 -40 20 -40 19 0 20 -7 20 -185 0 -158 -2 -185 -15 -185 -11 0 -15 -12 -15 -50 0 -46 2 -50 24 -50 19 0 26 -7 31 -30 4 -16 20 -41 37 -55 60 -51 156 -23 188 55 8 18 20 30 31 30 16 0 19 8 19 50 0 38 -4 50 -15 50 -13 0 -15 27 -15 184 0 184 0 185 23 188 18 2 23 10 25 41 3 36 4 37 43 37 l39 0 0 -244 0 -244 -119 -127 c-129 -139 -143 -150 -166 -138 -8 5 -65 65 -125 133 l-110 124 0 248 0 248 40 0 40 0 0 -40z m330 15 l0 -25 -150 0 -150 0 0 25 0 25 150 0 150 0 0 -25z m-780 -45 c0 -5 -13 -10 -30 -10 -16 0 -30 5 -30 10 0 6 14 10 30 10 17 0 30 -4 30 -10z m150 0 c0 -6 -27 -10 -60 -10 -33 0 -60 4 -60 10 0 6 27 10 60 10 33 0 60 -4 60 -10z m180 -204 c0 -186 -2 -215 -16 -220 -9 -3 -96 -6 -195 -6 l-179 0 0 103 c1 81 3 98 12 82 6 -11 14 -47 17 -80 l6 -60 158 -3 157 -3 0 125 c0 79 -4 126 -11 128 -7 2 -7 12 0 31 24 63 3 97 -60 97 -21 0 -39 5 -39 10 0 6 32 10 75 10 l75 0 0 -214z m400 9 l0 -185 -105 0 -105 0 0 185 0 185 105 0 105 0 0 -185z m-677 97 c17 -48 17 -49 -7 -104 -26 -60 -41 -76 -49 -55 -3 6 -23 56 -46 110 l-40 97 63 0 62 0 17 -48z m201 40 c8 -13 -86 -214 -96 -204 -5 5 -26 54 -47 110 l-39 102 88 0 c49 0 91 -4 94 -8z m6 -207 l0 -95 -125 0 -125 0 0 28 c0 17 8 32 21 40 11 7 28 31 38 54 l17 41 25 -49 c21 -42 28 -49 54 -49 27 0 33 6 59 63 16 34 31 62 33 62 2 0 3 -43 3 -95z m500 -165 c0 -19 -7 -20 -135 -20 -128 0 -135 1 -135 20 0 19 7 20 135 20 128 0 135 -1 135 -20z m-300 -153 c112 -126 138 -145 183 -133 13 3 78 64 145 135 97 103 126 128 142 124 12 -3 20 -9 18 -13 -2 -4 -64 -75 -138 -157 -141 -157 -173 -183 -209 -164 -16 9 -95 94 -275 299 -18 20 -18 24 -6 32 8 5 18 9 21 7 3 -1 57 -59 119 -130z m-186 96 c11 -16 58 -69 103 -120 46 -50 83 -94 83 -97 0 -3 -105 -6 -233 -6 -171 0 -238 3 -250 12 -14 11 -87 204 -87 230 0 4 81 8 181 8 l181 0 22 -27z m436 -4 c0 -6 -13 -24 -29 -40 -45 -45 -97 -36 -126 21 l-16 30 86 0 c54 0 85 -4 85 -11z"/>
 <path d="M800 630 c0 -56 3 -70 15 -70 12 0 15 14 15 70 0 56 -3 70 -15 70 -12 0 -15 -14 -15 -70z"/>
 </g>

</svg>