<!DOCTYPE svg PUBLIC "-//W3C//DTD SVG 20010904//EN" "http://www.w3.org/TR/2001/REC-SVG-20010904/DTD/svg10.dtd">
<svg version="1.0" xmlns="http://www.w3.org/2000/svg" width="300px" height="169px" viewBox="0 0 3000 1690" preserveAspectRatio="xMidYMid meet">
<g id="layer101" fill="#3fc380" stroke="none">
 <path d="M0 843 l0 -847 41 59 c41 61 351 531 506 769 l84 128 70 -103 c39 -57 76 -109 82 -116 9 -9 28 11 82 92 39 57 72 104 75 104 3 0 61 -83 129 -184 69 -102 129 -185 135 -185 6 0 62 79 125 175 62 97 117 177 120 180 4 2 53 -60 108 -138 286 -403 425 -592 436 -595 6 -1 129 175 271 390 143 216 367 554 498 751 131 197 238 360 238 363 0 2 -675 4 -1500 4 l-1500 0 0 -847z"/>
 </g>
<g id="layer102" fill="#f7f9f9" stroke="none">
 <path d="M0 843 l0 -847 41 59 c40 60 351 531 506 768 45 70 83 130 83 134 0 11 142 223 149 223 7 -1 154 -216 160 -233 7 -26 255 -387 265 -387 10 1 233 334 248 370 3 9 117 184 252 388 l245 372 -974 0 -975 0 0 -847z"/>
 </g>

</svg>