<!DOCTYPE svg PUBLIC "-//W3C//DTD SVG 20010904//EN" "http://www.w3.org/TR/2001/REC-SVG-20010904/DTD/svg10.dtd">
<svg version="1.0" xmlns="http://www.w3.org/2000/svg" width="375px" height="211px" viewBox="0 0 3750 2110" preserveAspectRatio="xMidYMid meet">
<g id="layer101" fill="#3fc380" stroke="none">
 <path d="M2 2103 c2 -5 214 -325 472 -713 258 -388 538 -810 623 -937 84 -128 157 -233 161 -233 4 0 114 150 244 333 131 183 282 393 335 468 l99 136 149 -228 c83 -126 155 -229 160 -229 12 1 6 -7 185 257 l143 212 38 -55 c21 -30 61 -88 89 -129 28 -41 55 -75 60 -75 5 0 52 63 105 140 l97 141 181 -276 c100 -151 278 -420 395 -597 l212 -322 0 1057 0 1057 -1876 0 c-1032 0 -1874 -3 -1872 -7z"/>
 </g>
<g id="layer102" fill="#f7f9f9" stroke="none">
 <path d="M1594 1688 c154 -233 297 -452 318 -488 75 -128 323 -500 333 -500 6 1 17 11 26 23 29 41 295 441 400 601 l104 159 20 -27 c11 -15 55 -82 97 -149 88 -140 338 -523 646 -989 l212 -322 0 1057 0 1057 -1218 0 -1218 0 280 -422z"/>
 </g>

</svg>